<svg width="20" height="20" viewBox="0 0 20 20" fill="none" xmlns="http://www.w3.org/2000/svg">
<path fill-rule="evenodd" clip-rule="evenodd" d="M0 0H20V20H0V0ZM9.87502 3C10.1129 3 10.3302 3.13505 10.4355 3.34836L12.2214 6.96654L16.2154 7.55032C16.4508 7.58472 16.6462 7.74973 16.7195 7.97598C16.7929 8.20223 16.7315 8.45052 16.5611 8.61647L13.6716 11.4309L14.3535 15.4068C14.3937 15.6413 14.2973 15.8783 14.1049 16.0182C13.9124 16.158 13.6572 16.1764 13.4466 16.0657L9.87502 14.1874L6.30342 16.0657C6.09285 16.1764 5.83767 16.158 5.64518 16.0182C5.4527 15.8783 5.35629 15.6413 5.39651 15.4068L6.07844 11.4309L3.18894 8.61647C3.01855 8.45052 2.95713 8.20223 3.03049 7.97598C3.10385 7.74973 3.29928 7.58472 3.53463 7.55032L7.5286 6.96654L9.31458 3.34836C9.41987 3.13505 9.63713 3 9.87502 3Z" fill="white"/>
<path fill-rule="evenodd" clip-rule="evenodd" d="M9.87502 3C10.1129 3 10.3302 3.13505 10.4355 3.34836L12.2214 6.96654L16.2154 7.55032C16.4508 7.58472 16.6462 7.74973 16.7195 7.97598C16.7929 8.20223 16.7315 8.45052 16.5611 8.61647L13.6716 11.4309L14.3535 15.4068C14.3937 15.6413 14.2973 15.8783 14.1049 16.0182C13.9124 16.158 13.6572 16.1764 13.4466 16.0657L9.87502 14.1874L6.30342 16.0657C6.09285 16.1764 5.83767 16.158 5.64518 16.0182C5.4527 15.8783 5.35629 15.6413 5.39651 15.4068L6.07844 11.4309L3.18894 8.61647C3.01855 8.45052 2.95713 8.20223 3.03049 7.97598C3.10385 7.74973 3.29928 7.58472 3.53463 7.55032L7.5286 6.96654L9.31458 3.34836C9.41987 3.13505 9.63713 3 9.87502 3ZM9.87502 5.03703L8.50421 7.81414C8.41325 7.99842 8.23751 8.12621 8.03416 8.15593L4.96778 8.60413L7.1861 10.7648C7.33352 10.9084 7.40081 11.1153 7.36602 11.3182L6.84263 14.3698L9.58411 12.9281C9.76623 12.8323 9.98381 12.8323 10.1659 12.9281L12.9074 14.3698L12.384 11.3182C12.3492 11.1153 12.4165 10.9084 12.5639 10.7648L14.7823 8.60413L11.7159 8.15593C11.5125 8.12621 11.3368 7.99842 11.2458 7.81414L9.87502 5.03703Z" fill="#F2C94C"/>
</svg>
